<svg xmlns="http://www.w3.org/2000/svg" version="1.1" xmlns:xlink="http://www.w3.org/1999/xlink" width="512" height="512" x="0" y="0" viewBox="0 0 512 512" style="enable-background:new 0 0 512 512" xml:space="preserve" class=""><g><rect width="490" height="490" x="11" y="11" fill="#cfdbe4" rx="79.38" opacity="1" data-original="#f07a88" class=""></rect><path fill="#bac5cb" d="M499.61 436.47c-6.95 36.74-39.23 64.53-77.99 64.53H90.39C46.55 501 11 465.46 11 421.62V90.38c0-10.39 2-20.3 5.63-29.39 55.23 215.47 250.44 374.84 482.98 375.48z" opacity="1" data-original="#d36e7f" class=""></path><path d="M421.62 509H90.39C42.2 509 3 469.8 3 421.62V260.1c0-4.42 3.58-8 8-8s8 3.58 8 8v161.52C19 460.98 51.03 493 90.39 493h331.23c39.36 0 71.38-32.02 71.38-71.38V90.38C493 51.02 460.98 19 421.62 19H90.39C51.03 19 19 51.02 19 90.38v81.96c0 4.42-3.58 8-8 8s-8-3.58-8-8V90.38C3 42.2 42.2 3 90.39 3h331.23C469.8 3 509 42.2 509 90.38v331.24c0 48.18-39.2 87.38-87.38 87.38z" fill="#000000" opacity="1" data-original="#000000" class=""></path><path d="M11 232.66c-4.42 0-8-3.58-8-8v-16.88c0-4.42 3.58-8 8-8s8 3.58 8 8v16.88c0 4.42-3.58 8-8 8zM116.43 288.4c-13.82 0-25.06-12.35-25.06-27.53s11.24-27.53 25.06-27.53 25.06 12.35 25.06 27.53-11.24 27.53-25.06 27.53zm0-39.05c-4.91 0-9.06 5.28-9.06 11.53s4.15 11.53 9.06 11.53 9.06-5.28 9.06-11.53-4.15-11.53-9.06-11.53z" fill="#000000" opacity="1" data-original="#000000" class=""></path><path d="M133.49 288.21c-4.42 0-8-3.58-8-8v-36.78c0-4.42 3.58-8 8-8s8 3.58 8 8v36.78c0 4.42-3.58 8-8 8zM354.37 288.4c-13.82 0-25.06-12.35-25.06-27.53s11.24-27.53 25.06-27.53 25.06 12.35 25.06 27.53-11.24 27.53-25.06 27.53zm0-39.05c-4.91 0-9.06 5.28-9.06 11.53s4.15 11.53 9.06 11.53 9.06-5.28 9.06-11.53-4.15-11.53-9.06-11.53z" fill="#000000" opacity="1" data-original="#000000" class=""></path><path d="M371.44 288.21c-4.42 0-8-3.58-8-8v-36.78c0-4.42 3.58-8 8-8s8 3.58 8 8v36.78c0 4.42-3.58 8-8 8zM453.44 288.4c-14.71 0-26.68-12.35-26.68-27.53s11.97-27.52 26.68-27.52 25.97 11.51 26.65 26.21c.2 4.41-3.21 8.16-7.62 8.36-4.44.19-8.16-3.21-8.36-7.62-.28-6.14-4.97-10.94-10.67-10.94s-10.68 5.17-10.68 11.52 4.79 11.53 10.68 11.53c2.63 0 5.15-1.04 7.12-2.94 3.18-3.07 8.25-2.97 11.31.21 3.07 3.18 2.97 8.25-.21 11.31-4.96 4.78-11.43 7.42-18.22 7.42z" fill="#000000" opacity="1" data-original="#000000" class=""></path><path d="M471.74 267.93h-36.63c-4.42 0-8-3.58-8-8s3.58-8 8-8h36.63c4.42 0 8 3.58 8 8s-3.58 8-8 8zM205.44 263.92c-2.65 0-5.25-1.32-6.77-3.73a8.008 8.008 0 0 1 2.49-11.04l18.59-11.73a8.008 8.008 0 0 1 11.04 2.49 8.008 8.008 0 0 1-2.49 11.04l-18.59 11.73a7.94 7.94 0 0 1-4.26 1.24z" fill="#000000" opacity="1" data-original="#000000" class=""></path><path d="M222.86 288.4c-2.8 0-5.51-1.47-6.98-4.08l-14.73-26.16c-2.17-3.85-.8-8.73 3.05-10.9s8.73-.8 10.9 3.05l14.73 26.16c2.17 3.85.8 8.73-3.05 10.9-1.24.7-2.59 1.03-3.92 1.03z" fill="#000000" opacity="1" data-original="#000000" class=""></path><path d="M203.29 288.4c-4.42 0-8-3.58-8-8v-52.32c0-4.42 3.58-8 8-8s8 3.58 8 8v52.32c0 4.42-3.58 8-8 8zM252.86 288.4c-.45 0-.9-.01-1.36-.04-6.49-.41-12.35-3.72-15.69-8.85-2.41-3.7-1.36-8.66 2.35-11.07 3.7-2.41 8.66-1.36 11.07 2.35.44.67 1.56 1.5 3.28 1.6 2.23.14 3.7-1.07 3.74-1.78.04-.67-.99-1.76-2.68-2.13-.29 0-.59 0-.89-.04a9.41 9.41 0 0 1-1.1-.15c-10.28-1.2-17.86-9.57-17.26-19.11.31-4.96 2.86-9.6 7-12.73 3.84-2.91 8.7-4.34 13.72-4.01 4.73.3 9.2 2.15 12.59 5.22 3.27 2.97 3.52 8.03.55 11.3s-8.03 3.52-11.3.55c-.7-.63-1.73-1.03-2.84-1.1-1.16-.07-2.28.22-3.05.8-.2.15-.66.55-.69.98-.05.73 1.21 1.99 3.22 2.22.05 0 .11.01.16.02.25 0 .5.01.76.03.13 0 .25.02.38.03 10.37 1.15 18.02 9.55 17.42 19.12-.6 9.5-9.15 16.79-19.36 16.79zM61.9 251.33h-22c-4.42 0-8-3.58-8-8v-22.7c0-7.29 5.93-13.23 13.23-13.23H61.9c12.11 0 21.96 9.85 21.96 21.96s-9.85 21.96-21.96 21.96zm-14-16h14c3.29 0 5.96-2.68 5.96-5.96s-2.68-5.96-5.96-5.96h-14v11.93z" fill="#000000" opacity="1" data-original="#000000" class=""></path><path d="M60.46 288.4H45.13c-7.29 0-13.23-5.93-13.23-13.23v-31.84c0-4.42 3.58-8 8-8h20.55c14.63 0 26.54 11.9 26.54 26.54s-11.9 26.54-26.54 26.54zm-12.55-16h12.55c5.81 0 10.54-4.73 10.54-10.54s-4.73-10.54-10.54-10.54H47.91v21.07zM171 288.4c-14.14 0-25.64-11.75-25.64-26.2S156.86 236 171 236c6.47 0 12.65 2.47 17.4 6.96 3.21 3.03 3.36 8.1.32 11.31-3.03 3.21-8.1 3.35-11.31.32-1.76-1.67-4.04-2.59-6.41-2.59-5.31 0-9.64 4.58-9.64 10.2s4.32 10.2 9.64 10.2c2.37 0 4.65-.92 6.41-2.59 3.21-3.03 8.27-2.89 11.31.32s2.89 8.27-.32 11.31c-4.75 4.49-10.93 6.96-17.4 6.96zM406.85 288.4c-14.14 0-25.64-11.75-25.64-26.2s11.5-26.2 25.64-26.2c6.47 0 12.65 2.47 17.4 6.96 3.21 3.03 3.36 8.1.32 11.31-3.03 3.21-8.1 3.35-11.31.32-1.76-1.67-4.04-2.59-6.41-2.59-5.31 0-9.64 4.58-9.64 10.2s4.32 10.2 9.64 10.2c2.37 0 4.65-.92 6.41-2.59 3.21-3.03 8.27-2.89 11.31.32s2.89 8.27-.32 11.31c-4.75 4.49-10.93 6.96-17.4 6.96zM299.5 291.25c-14.2 0-25.76-12.71-25.76-28.33s11.56-28.33 25.76-28.33 25.76 12.71 25.76 28.33-11.56 28.33-25.76 28.33zm0-40.65c-5.38 0-9.76 5.53-9.76 12.33s4.38 12.33 9.76 12.33 9.76-5.53 9.76-12.33-4.38-12.33-9.76-12.33z" fill="#000000" opacity="1" data-original="#000000" class=""></path><path d="M281.74 304.6c-4.42 0-8-3.58-8-8v-54c0-4.42 3.58-8 8-8s8 3.58 8 8v54c0 4.42-3.58 8-8 8z" fill="#000000" opacity="1" data-original="#000000" class=""></path></g></svg>