<svg xmlns="http://www.w3.org/2000/svg" version="1.1" xmlns:xlink="http://www.w3.org/1999/xlink" width="512" height="512" x="0" y="0" viewBox="0 0 512 512" style="enable-background:new 0 0 512 512" xml:space="preserve" class=""><g><rect width="490" height="490" x="11" y="11" fill="#cfdbe4" rx="79.38" opacity="1" data-original="#f6f4f9" class=""></rect><path fill="#4a5058" d="m275.38 345.37 91.47-158.44c8.61-14.92-2.15-33.57-19.38-33.57H164.53c-17.23 0-27.99 18.65-19.38 33.57l91.47 158.44c8.61 14.92 30.15 14.92 38.76 0z" opacity="1" data-original="#4a5058" class=""></path><path fill="#bac5cb" d="M499.61 436.47c-6.95 36.74-39.23 64.53-77.99 64.53H90.39C46.55 501 11 465.46 11 421.62V90.38c0-10.39 2-20.3 5.63-29.39 55.23 215.47 250.44 374.84 482.98 375.48z" opacity="1" data-original="#e3e2e7" class=""></path><path d="M421.62 509H90.39C42.2 509 3 469.8 3 421.62V260.1c0-4.42 3.58-8 8-8s8 3.58 8 8v161.52C19 460.98 51.03 493 90.39 493h331.23c39.36 0 71.38-32.02 71.38-71.38V90.38C493 51.02 460.98 19 421.62 19H90.39C51.03 19 19 51.02 19 90.38v81.96c0 4.42-3.58 8-8 8s-8-3.58-8-8V90.38C3 42.2 42.2 3 90.39 3h331.23C469.8 3 509 42.2 509 90.38v331.24c0 48.18-39.2 87.38-87.38 87.38z" fill="#000000" opacity="1" data-original="#000000" class=""></path><path d="M11 232.66c-4.42 0-8-3.58-8-8v-16.88c0-4.42 3.58-8 8-8s8 3.58 8 8v16.88c0 4.42-3.58 8-8 8zM256 366.63c-10.98 0-20.82-5.68-26.31-15.19L138.22 193c-5.49-9.51-5.49-20.87 0-30.38s15.33-15.19 26.31-15.19h182.95c10.98 0 20.82 5.68 26.31 15.19s5.49 20.87 0 30.38l-91.47 158.44c-5.49 9.51-15.33 15.19-26.31 15.19zm-91.47-203.19c-5.2 0-9.85 2.69-12.45 7.19s-2.6 9.88 0 14.38l91.47 158.44c2.6 4.5 7.25 7.19 12.45 7.19s9.85-2.69 12.45-7.19l91.47-158.44c2.6-4.5 2.6-9.88 0-14.38s-7.25-7.19-12.45-7.19z" fill="#000000" opacity="1" data-original="#000000" class=""></path></g></svg>