<svg xmlns="http://www.w3.org/2000/svg" version="1.1" xmlns:xlink="http://www.w3.org/1999/xlink" width="512" height="512" x="0" y="0" viewBox="0 0 512 512" style="enable-background:new 0 0 512 512" xml:space="preserve" class=""><g><rect width="490" height="490" x="11" y="11" fill="#cfdbe4" rx="79.38" opacity="1" data-original="#cfdbe4" class=""></rect><path fill="#bac5cb" d="M499.61 436.47c-6.95 36.74-39.23 64.53-77.99 64.53H90.39C46.55 501 11 465.46 11 421.62V90.38c0-10.39 2-20.3 5.63-29.39 55.23 215.47 250.44 374.84 482.98 375.48z" opacity="1" data-original="#bac5cb"></path><path d="M421.62 509H90.39C42.2 509 3 469.8 3 421.62V260.1c0-4.42 3.58-8 8-8s8 3.58 8 8v161.52C19 460.98 51.03 493 90.39 493h331.23c39.36 0 71.38-32.02 71.38-71.38V90.38C493 51.02 460.98 19 421.62 19H90.39C51.03 19 19 51.02 19 90.38v81.96c0 4.42-3.58 8-8 8s-8-3.58-8-8V90.38C3 42.2 42.2 3 90.39 3h331.23C469.8 3 509 42.2 509 90.38v331.24c0 48.18-39.2 87.38-87.38 87.38z" fill="#000000" opacity="1" data-original="#000000" class=""></path><path d="M11 232.66c-4.42 0-8-3.58-8-8v-16.88c0-4.42 3.58-8 8-8s8 3.58 8 8v16.88c0 4.42-3.58 8-8 8zM331.37 312.23c-19.7 0-35.72-16.59-35.72-36.98s16.02-36.98 35.72-36.98 34.77 15.46 35.68 35.2c.2 4.41-3.21 8.16-7.63 8.36-4.42.19-8.16-3.21-8.36-7.63-.51-11.18-9.16-19.93-19.69-19.93s-19.72 9.41-19.72 20.98 8.85 20.98 19.72 20.98c4.9 0 9.61-1.93 13.25-5.44 3.18-3.07 8.24-2.97 11.31.21s2.97 8.25-.21 11.31c-6.64 6.4-15.29 9.92-24.35 9.92z" fill="#000000" opacity="1" data-original="#000000" class=""></path><path d="M358.54 281.85h-54.36c-4.42 0-8-3.58-8-8s3.58-8 8-8h54.36c4.42 0 8 3.58 8 8s-3.58 8-8 8zM170.21 312.23c-4.42 0-8-3.58-8-8v-59.36c0-4.42 3.58-8 8-8s8 3.58 8 8v59.36c0 4.42-3.58 8-8 8z" fill="#000000" opacity="1" data-original="#000000" class=""></path><path d="M204.54 312.23c-4.42 0-8-3.58-8-8v-42.19c0-5.05-4.11-9.17-9.17-9.17s-9.17 4.11-9.17 9.17v42.19c0 4.42-3.58 8-8 8s-8-3.58-8-8v-42.19c0-13.88 11.29-25.17 25.17-25.17s25.17 11.29 25.17 25.17v42.19c0 4.42-3.58 8-8 8zM423.15 268.66c-4.42 0-8-3.58-8-8s-3.66-7.79-8.15-7.79-8.15 3.5-8.15 7.79-3.58 8-8 8-8-3.58-8-8c0-13.12 10.83-23.79 24.15-23.79s24.15 10.67 24.15 23.79c0 4.42-3.58 8-8 8z" fill="#000000" opacity="1" data-original="#000000" class=""></path><path d="M390.84 312.23c-4.42 0-8-3.58-8-8v-59.36c0-4.42 3.58-8 8-8s8 3.58 8 8v59.36c0 4.42-3.58 8-8 8zM268.76 312.23h-9.06c-10.31 0-18.7-9.57-18.7-21.33v-61.3c0-4.42 3.58-8 8-8s8 3.58 8 8v61.3c0 3.25 1.77 5.32 2.7 5.32h9.06c.93 0 2.7-2.07 2.7-5.32 0-4.42 3.58-8 8-8s8 3.58 8 8c0 11.76-8.39 21.33-18.7 21.33z" fill="#000000" opacity="1" data-original="#000000" class=""></path><path d="M265.67 258.1h-33.33c-4.42 0-8-3.58-8-8s3.58-8 8-8h33.33c4.42 0 8 3.58 8 8s-3.58 8-8 8zM134.37 312.23H92c-6.14 0-11.14-5-11.14-11.14v-90.18c0-6.14 5-11.14 11.14-11.14h42.37c4.42 0 8 3.58 8 8s-3.58 8-8 8H96.86v80.46h37.51c4.42 0 8 3.58 8 8s-3.58 8-8 8z" fill="#000000" opacity="1" data-original="#000000" class=""></path><path d="M134.37 264H88.86c-4.42 0-8-3.58-8-8s3.58-8 8-8h45.51c4.42 0 8 3.58 8 8s-3.58 8-8 8z" fill="#000000" opacity="1" data-original="#000000" class=""></path></g></svg>