<svg xmlns="http://www.w3.org/2000/svg" version="1.1" xmlns:xlink="http://www.w3.org/1999/xlink" width="512" height="512" x="0" y="0" viewBox="0 0 512 512" style="enable-background:new 0 0 512 512" xml:space="preserve" class=""><g><rect width="490" height="490" x="11" y="11" fill="#cfdbe4" rx="79.38" opacity="1" data-original="#75b49d" class=""></rect><path fill="#bac5cb" d="M499.61 436.47c-6.95 36.74-39.23 64.53-77.99 64.53H90.39C46.55 501 11 465.46 11 421.62V90.38c0-10.39 2-20.3 5.63-29.39 55.23 215.47 250.44 374.84 482.98 375.48z" opacity="1" data-original="#63a28a" class=""></path><path d="M421.62 509H90.39C42.2 509 3 469.8 3 421.62V260.1c0-4.42 3.58-8 8-8s8 3.58 8 8v161.52C19 460.98 51.03 493 90.39 493h331.23c39.36 0 71.38-32.02 71.38-71.38V90.38C493 51.02 460.98 19 421.62 19H90.39C51.03 19 19 51.02 19 90.38v81.96c0 4.42-3.58 8-8 8s-8-3.58-8-8V90.38C3 42.2 42.2 3 90.39 3h331.23C469.8 3 509 42.2 509 90.38v331.24c0 48.18-39.2 87.38-87.38 87.38z" fill="#000000" opacity="1" data-original="#000000" class=""></path><path d="M11 232.66c-4.42 0-8-3.58-8-8v-16.88c0-4.42 3.58-8 8-8s8 3.58 8 8v16.88c0 4.42-3.58 8-8 8zM236.02 361.3c-32.58 0-59.08-29.81-59.08-66.46s26.5-66.46 59.08-66.46 59.08 29.81 59.08 66.46-26.5 66.46-59.08 66.46zm0-116.91c-23.75 0-43.08 22.63-43.08 50.46s19.32 50.46 43.08 50.46 43.08-22.63 43.08-50.46-19.32-50.46-43.08-50.46z" fill="#000000" opacity="1" data-original="#000000" class=""></path><path d="M287.1 360.73c-4.42 0-8-3.58-8-8v-110.1c0-4.42 3.58-8 8-8s8 3.58 8 8v110.1c0 4.42-3.58 8-8 8zM378.85 361.3c-31.96 0-57.96-29.24-57.96-65.18s26-65.18 57.96-65.18 57.96 29.24 57.96 65.18-26 65.18-57.96 65.18zm0-114.36c-23.14 0-41.96 22.06-41.96 49.18s18.82 49.18 41.96 49.18 41.96-22.06 41.96-49.18-18.82-49.18-41.96-49.18z" fill="#000000" opacity="1" data-original="#000000" class=""></path><path d="M328.88 357.97c-4.42 0-8-3.58-8-8v-151.9c0-4.42 3.58-8 8-8s8 3.58 8 8v151.9c0 4.42-3.58 8-8 8zM138.08 361.3c-4.42 0-8-3.58-8-8V163.71c0-4.42 3.58-8 8-8s8 3.58 8 8V353.3c0 4.42-3.58 8-8 8z" fill="#000000" opacity="1" data-original="#000000" class=""></path><path d="M192.98 166.7H83.19c-4.42 0-8-3.58-8-8s3.58-8 8-8h109.78c4.42 0 8 3.58 8 8s-3.58 8-8 8z" fill="#000000" opacity="1" data-original="#000000" class=""></path></g></svg>